<svg xmlns="http://www.w3.org/2000/svg" viewBox="0 0 448 512" fill="#ffffff"> <!--! Font Awesome Pro 6.1.1 by @fontawesome - https://fontawesome.com License - https://fontawesome.com/license (Commercial License) Copyright 2022 Fonticons, Inc.--><path d="M406.2 160.2a56.21 56.21 0 0 0-77.88-14.5l-36.38 25c-32.88 22.66-87.05 33.63-135.8 0l-36.38-25a56.21 56.21 0 0 0-77.88 14.5 56.17 56.17 0 0 0 14.5 78l36.38 24.88a220.6 220.6 0 0 0 35.38 19.75v22.62L73.89 361.7c-19.25 17.75-23.5 46.38-10 69.25l38.25 56.13a55.92 55.92 0 0 0 74.96 17.17c13-7.75 52.25-40.5 2-96.5l18.38-11.62c17.5 6.07 40.47 4.38 53.09 0l18.38 11.62c-50.25 56-11 88.75 2 96.5A55.8 55.8 0 0 0 299.3 512a56.2 56.2 0 0 0 46.58-24.88l38.25-56.13c13.5-22.88 9.25-51.5-10-69.25l-54.25-56.25V282.9a220.21 220.21 0 0 0 35.38-19.75l36.38-24.88c25.56-17.57 32.06-52.57 14.56-78.07zM169.3 443.7a24.31 24.31 0 0 1-8.5 33c-10.77 6.25-25.8 3.5-33-8.5l-36.5-53.5a23.92 23.92 0 0 1 5.5-30.75l38.75-41.25c.75.88 27.55 28.51 36.88 37.88l-29.38 27.62 26.25 35.5zm82.7-85.1c-13.07 13.07-43.34 12.75-56.09 0l-35.88-35.88V303.1h127.8v18.75L252 358.6zm99.2 24.5a23.92 23.92 0 0 1 5.5 30.75l-36.5 53.5c-7.26 12.1-22.32 14.7-33 8.5a24.3 24.3 0 0 1-8.5-33l26.25-35.5-29.38-27.62c9.33-9.36 36.13-37 36.88-37.88l38.75 41.25zm22.3-171.4-36.38 25a199.87 199.87 0 0 1-39.57 20.83 15.45 15.45 0 0 0-9.68 14.42H160.1c0-6.33-3.79-12.11-9.68-14.42a199.4 199.4 0 0 1-39.57-20.83l-36.38-25c-26.38-18.12 1.25-57.25 27.25-39.5l36.25 24.88c1.76 1.2 83.97 60.38 172.1 0l36.25-24.88c25.98-17.7 53.58 21.4 27.18 39.5zM224 159.1c44.21-.04 79.99-35.78 79.99-79.1C303.99 35.78 268.21.04 224 .9c-44.2-.86-80 34.87-80 78.2 0 45.1 35.8 80 80 80zM224 32a48 48 0 0 1 47.92 47.99A48 48 0 0 1 224 127.98a47.96 47.96 0 0 1-47.9-47.99A47.96 47.96 0 0 1 224 32z"/></svg>