<svg xmlns="http://www.w3.org/2000/svg" viewBox="0 0 512 512" fill="#ffffff"><!--! Font Awesome Pro 6.1.1 by @fontawesome - https://fontawesome.com License - https://fontawesome.com/license (Commercial License) Copyright 2022 Fonticons, Inc.--><path d="m256 101 38.8-62.03A82.82 82.82 0 0 1 365.1 0h2.9a80 80 0 0 1 64 128h32c26.5 0 48 21.5 48 48v64c0 20.9-13.4 38.7-32 45.3V448c0 35.3-28.7 64-64 64H96c-35.35 0-64-28.7-64-64V285.3A48.07 48.07 0 0 1 0 240v-64a48 48 0 0 1 48-48h31.99A80 80 0 0 1 144 0h2.9c28.6 0 55.2 14.73 70.3 38.97L256 101zm109.1-69c-17.6 0-33.9 9.04-43.2 23.93l-45 72.07H368a48.01 48.01 0 0 0 0-96h-2.9zm-130 96-45-72.07A50.89 50.89 0 0 0 146.9 32H144a48 48 0 0 0 0 96h91.1zM48 160c-8.84 0-16 7.2-16 16v64c0 8.8 7.16 16 16 16h192v-96H48zm224 96h192c8.8 0 16-7.2 16-16v-64c0-8.8-7.2-16-16-16H272v96zm-32 32H64v160c0 17.7 14.33 32 32 32h144V288zm32 192h144c17.7 0 32-14.3 32-32V288H272v192z"/></svg>