<svg xmlns="http://www.w3.org/2000/svg" viewBox="0 0 512 512" fill="#FFFFFF"><!--! Font Awesome Pro 6.1.1 by @fontawesome - https://fontawesome.com License - https://fontawesome.com/license (Commercial License) Copyright 2022 Fonticons, Inc.--><path d="M184 160c5.4 0 10.9-1.8 15.4-5.6 36-30 56.6-74 56.6-120.9V24c0-13.3-10.8-24-23.1-24s-23.1 10.8-23.1 24v9.5a109 109 0 0 1-39.4 84 22.8 22.8 0 0 0-4.8 33.9A23.7 23.7 0 0 0 184 160zM64 63.1A31 31 0 1 0 64 .9 31 31 0 0 0 32.9 32C32 49.7 46.3 63.1 64 63.1zM487.1 256h-9.5c-46 0-90 20.7-120 56.6a24 24 0 0 0 17.5 39.4 24 24 0 0 0 18.4-8.6c21.8-25.1 52.4-39.4 85-39.4h9.5c13.3 0 23.1-10.8 23.1-24s-9.9-24-24-24zm-8 160a31 31 0 1 0 31.1 31.1c.9-16.8-12.5-31.1-31.1-31.1zm0-288a31 31 0 1 0 31.1 31.1c.9-16.8-12.5-31.1-31.1-31.1zm-89.4 48c20.9-24.5 19.4-48.2 18.3-65.5-1-15-1.1-22 6.8-31.2s14.8-10.2 29.7-11.5c17.2-1.6 40.9-3.7 61.8-28.2a24 24 0 0 0-36.5-31.2c-7.9 9.2-14.8 10.2-29.7 11.5-17.2 1.6-40.9 3.7-61.8 28.2s-19.4 48.2-18.3 65.5c1 15 1.1 22-6.8 31.2-7.8 9.2-14.7 10.2-29.6 11.5-17.2 1.5-40.9 3.6-61.8 28.1a24 24 0 0 0 17.3 39.6c6.8 0 13.5-2.8 18.3-8.4 7.8-9.2 14.7-10.2 29.5-11.5 18.2-1.5 41.8-3.6 62.8-28.1zm-239.1 25.4a31.8 31.8 0 0 0-29.4-8.7 32 32 0 0 0-23.2 20l-95.1 256a32 32 0 0 0 7.3 34c5.3 6 13.5 9.3 21.8 9.3a32 32 0 0 0 11.3-2l255-96a32 32 0 0 0 11.4-52.6l-159.1-160zM59.3 452.7 92 365.9l54.3 54.2-86.9 32.6zm136.2-51.1-85.1-85.1 23.8-63.6 125 125-63.7 23.7z"/></svg>