<svg xmlns="http://www.w3.org/2000/svg" viewBox="0 0 640 512" fill="#FFFFFF"><!--! Font Awesome Pro 6.1.1 by @fontawesome - https://fontawesome.com License - https://fontawesome.com/license (Commercial License) Copyright 2022 Fonticons, Inc.--><path d="M624.3 18a26.3 26.3 0 0 1 13.9 14.2 28 28 0 0 1 1.8 10V472c0 6.4-2.5 12.5-7.9 16.1A18.8 18.8 0 0 1 616 496c-6.4 0-12.5-2.5-17-7.9-4.5-3.6-7-9.7-7-16.1V320h-29.1a51.2 51.2 0 0 1-47.3-32.8 52 52 0 0 1-3.6-19.9l.4-109.1a150.8 150.8 0 0 1 92.4-140.3c3-1.3 6.3-2.8 9.6-1.9 3.4 0 6.8.7 9.9 2zM592 82.9a104.6 104.6 0 0 0-31.4 75.4l-.6 109.4c-.1 1.3.4 2.6 1.3 3.6.2.3.5.5.8.6.2.1.5-.7.8.2H592V82.8zM159.6 207.6A60.2 60.2 0 0 1 120 224h-8v248c0 6.4-2.5 12.5-7.9 16.1A18.8 18.8 0 0 1 88 496c-6.4 0-12.5-2.5-17-7.9-4.5-3.6-7-9.7-7-16.1V224h-8a60 60 0 0 1-39.6-16.4A56.2 56.2 0 0 1 0 168V40a24 24 0 0 1 48 0v128c0 2.1.8 4.2 2.3 5.7A8 8 0 0 0 56 176h8V40a24 24 0 0 1 24-24c6.4 0 12.5 2.5 16.1 7a21.6 21.6 0 0 1 7.9 17v136h8c2.1 0 4.2-.8 5.7-2.3a8.1 8.1 0 0 0 2.3-5.7V40a24 24 0 0 1 24-24c6.4 0 12.5 2.5 16.1 7a21.6 21.6 0 0 1 7.9 17v128a60.2 60.2 0 0 1-16.4 39.6zm85.9 138.9A128 128 0 0 1 287 137.7a126 126 0 0 1 73.1-7.2A126.9 126.9 0 0 1 461.5 231c5 24.9 2.4 50.6-7.2 73.1a127.6 127.6 0 0 1-208.8 42.4zm33.9-147.1a80 80 0 0 0 26 130.5 88.7 88.7 0 0 0 46.2 4.6 80.3 80.3 0 0 0 62.9-62.9c3-15.5.6-31.6-4.6-46.2A79.6 79.6 0 0 0 336 176a80 80 0 0 0-56.6 23.4zm144.2-96A175 175 0 0 0 208 135.6V72.3a223.3 223.3 0 0 1 283.8 23c-7 19.5-10.8 40.1-11.1 60.8a174.5 174.5 0 0 0-57.1-52.7zm81.1 224.1a82.5 82.5 0 0 0 35.2 20.8 223.4 223.4 0 0 1-191.1 131.3 224.6 224.6 0 0 1-117.6-25.7 230.3 230.3 0 0 1-87.2-83V252.1a97.1 97.1 0 0 0 16.5-6.4c-.2 3.4-.5 6.8-.5 10.3a176.4 176.4 0 0 0 142.8 172.5 176.2 176.2 0 0 0 196.6-107.3c1.6 2.2 3.4 4.3 5.3 6.3z"/></svg>