<svg xmlns="http://www.w3.org/2000/svg" viewBox="0 0 640 512" fill="#ffffff"><!--! Font Awesome Pro 6.1.1 by @fontawesome - https://fontawesome.com License - https://fontawesome.com/license (Commercial License) Copyright 2022 Fonticons, Inc.--><path d="M624.3 18a26.4 26.4 0 0 1 13.9 14.2 28 28 0 0 1 1.8 10V480a16 16 0 0 1-16 16 16 16 0 0 1-16-16V320h-45.1a51.2 51.2 0 0 1-47.3-32.8 52 52 0 0 1-3.6-19.9l.4-109.1a150.8 150.8 0 0 1 92.4-140.3 25 25 0 0 1 19.5.2zM608 51.9a118.4 118.4 0 0 0-63.4 106.4l-.6 109.3c-.9 2.8.5 5.5 1.5 8.1a23.1 23.1 0 0 0 9.6 10.9c3.1 1 5.5.6 7.8 1.5H608V51.8zM145.9 209.9A48 48 0 0 1 112 224H96v256a16 16 0 0 1-27.3 11.3A16 16 0 0 1 64 480V224H48a48 48 0 0 1-48-48V32a16 16 0 0 1 32 0v144a16 16 0 0 0 16 16h16V32a16 16 0 0 1 32 0v160h16a16 16 0 0 0 16-16V32a16 16 0 0 1 32 0v144a48 48 0 0 1-14.1 33.9zm291.9-55.7a144 144 0 1 1-243 129.9 151.2 151.2 0 0 1 7.3-83.2 156.3 156.3 0 0 1 53-64.6A148.5 148.5 0 0 1 336 112a144 144 0 0 1 101.8 42.2zm-22.6 181a112 112 0 1 0-158.4-158.4 112 112 0 0 0 158.4 158.4zm127.5 23c1.3 1.7 1.4 3.6 2.8 5.6.6 2.1.7 3.3-.4 6.3.6 2.1-.1 4.1-1.1 5.9a239.7 239.7 0 0 1-217.5 119.7 248.2 248.2 0 0 1-122.6-39.5 240.4 240.4 0 0 1-84.5-97.3c-1.1-2.8-1.8-4-2-6.2-.2-2.2 0-4.4.6-6.5a16.8 16.8 0 0 1 8.4-9.7c2-.9 4.1-1.4 6.3-2.4 2.2.8 4.4 1.2 6.5 2 2 .8 3.9 2 5.4 3.6a15 15 0 0 1 3.6 5.4 208.6 208.6 0 0 0 288.2 93.1 208.8 208.8 0 0 0 79.8-78.2c2.1-3.7 5.6-6.3 9.7-7.4 3.2-1.1 8.4-.6 12.1 1.5a17 17 0 0 1 4.7 4.1zM195.5 95.9c-4.2-.5-8-2.7-10.7-6a16.1 16.1 0 0 1 2.7-22.5 240 240 0 0 1 297 0c3.3 2.6 4.6 6.5 6 10.7-.4 4.2-.7 8.5-3.3 11.8a16.3 16.3 0 0 1-10.7 6c-4.3.5-8.5-.7-11.8-3.3a211.4 211.4 0 0 0-257.4 0c-4.2 2.6-7.5 3.8-11.8 3.3z"/></svg>