<svg xmlns="http://www.w3.org/2000/svg" viewBox="0 0 512 512" fill="#FFFFFF"><!--! Font Awesome Pro 6.1.1 by @fontawesome - https://fontawesome.com License - https://fontawesome.com/license (Commercial License) Copyright 2022 Fonticons, Inc.--><path d="M371.9 147.7a226.15 226.15 0 0 1 22.38 59c41.13 21.25 69.63 63.75 69.63 113.2 0 70.75-57.25 128-128 128s-128-57.25-128-128c0-54.63 34.5-101.1 82.88-119.5a127.6 127.6 0 0 1 13.13 55.5c0 37.37-16.38 70.75-42 94.12a80.06 80.06 0 0 0 31 37 175.52 175.52 0 0 0 56.75-158.7 175.62 175.62 0 0 0-103.1-133.5l41.38-66.25L232.4-16h-113L63.9 28.62l41.25 66.25C29.03 128.4-13.35 210.6 3.78 292.1S92.66 431.9 175.88 432c7.62-.13 15.25-.63 22.88-1.88 48.5 60.5 131 82.13 203 53.12 71.88-28.87 116.4-101.6 109.5-178.9S447.8 163.5 371.9 147.7zm-244-108.33 8.5-7.37h79l8.5 7.37-25.5 42.25a159.62 159.62 0 0 0-45 0l-25.5-42.25zm-80 215.73c.13-70.62 57.38-127.9 128-128 33 0 62.88 12.88 85.63 33.5-59.88 28-101.6 88-101.6 158.5 0 21.75 4.12 43.38 12 63.63C103.3 381.5 47.9 325.2 47.9 255.1z"/></svg>