<svg xmlns="http://www.w3.org/2000/svg" viewBox="0 0 448 512" fill="#ffffff"><!--! Font Awesome Pro 6.1.1 by @fontawesome - https://fontawesome.com License - https://fontawesome.com/license (Commercial License) Copyright 2022 Fonticons, Inc.--><path d="M221.9 149.7c2.9 12.5 3 25.6.2 38.1a85.18 85.18 0 0 1-16.5 34.4c-8.5 10.4-19.1 17.9-31.1 24.6-12.1 5.9-25.3 9-38.7 9.2H128v239.1a16.06 16.06 0 0 1-16 16 16.06 16.06 0 0 1-16-16V256h-7.84c-13.39-.1-26.59-3.2-38.66-9.9-12.07-4.9-22.72-13.3-31.19-23.7a85.47 85.47 0 0 1-16-73.6L24.39 13.44A15.97 15.97 0 0 1 42.6.95a16.01 16.01 0 0 1 13.34 17.61L33.76 154.8c-2.19 7.3-2.46 16.7-.8 24.9 1.67 8.2 5.23 16 10.4 22.6a59.07 59.07 0 0 0 19.99 15.8 57.78 57.78 0 0 0 24.81 5.9h47.64c8.6-.2 17.1-2.3 24.8-6.9 7.8-2.9 14.6-8.3 20.1-15 5.1-6.4 8.6-13.9 10.3-22 1.7-8.1 1.5-16.4-.5-24.4L168.1 18.56A16.01 16.01 0 0 1 181.3.23c4.2-.68 8.4.33 11.9 2.81 3.4 2.48 5.7 6.22 6.4 10.4l22.3 136.26zM73.14 190.5c-1.9-.9-3.61-2.2-5.01-3.8a15.84 15.84 0 0 1-4.1-11.5l8-160.03A15.1 15.1 0 0 1 88.8 0a16.07 16.07 0 0 1 11.09 5.25A15.97 15.97 0 0 1 104 16.8l-8 160c-.2 4.1-1.98 8-4.96 10.8A16.16 16.16 0 0 1 80 192h-.8c-2.1-.1-4.16-.6-6.06-1.5zm58.96-2.9c-3-2.9-3.9-6.7-4.1-10.8l-8-160.03c-.2-4.23 1.3-8.38 4.1-11.52 2-3.15 6-5.03 11.1-5.25 2.1-.2 4.3.04 6.3.7 2 .68 3.9 1.76 4.6 3.2 2.4 1.42 3.7 3.17 4.6 5.12.8 1.94.4 4.05 1.3 6.18l8 160c.1 2.1-.2 4.2-.9 6.2s-1.8 3.8-3.2 5.4c-1.4 1.5-3.1 2.8-5 3.7-2.8.9-4 1.4-6.1 1.5h-.8c-4.1-.9-8.1-1.6-11.9-4.4zM448 78.11V494.1c0 5.1-1.7 9.2-4.7 12.2s-7.1 3.8-11.3 3.8c-4.2 0-8.3-.8-11.3-3.8s-4.7-7.1-4.7-12.2v-144h-64.8c-8.4 0-16.8-.8-24.6-4-7.7-3.3-14.8-8-20.8-14-5.9-6-10.6-14-14.7-20.9-2.3-7.8-3.9-16.2-3.9-24.6l.8-113.8c0-36.9 11.1-72.96 31.8-103.51a184.98 184.98 0 0 1 84.3-67.91c4-1.94 10.1-2.66 15.3-2.1 5.2.56 10.2 2.39 13.7 5.32 5.2 2.94 8.7 6.89 11.2 11.51a32.6 32.6 0 0 1 3.7 15v47zm-32-47a151.72 151.72 0 0 0-69.8 56.05A151.25 151.25 0 0 0 320 172.8l-.8 114.1a32.46 32.46 0 0 0 9.3 22.8c3 2.9 6.5 5.3 10.4 6.9 3.9 1.7 8.1 2.5 12.3 2.5h63.7L416 31.11z"/></svg>