<svg xmlns="http://www.w3.org/2000/svg" viewBox="0 0 320 512" fill="#ffffff"><!--! Font Awesome Pro 6.1.1 by @fontawesome - https://fontawesome.com License - https://fontawesome.com/license (Commercial License) Copyright 2022 Fonticons, Inc.--><path d="M240 480h-64V349.8c76.68-8.74 134.6-77.24 127.4-157.2L288.74 29.1C287.3 12.62 273.7 0 257.3 0H62.66C46.35 0 32.73 12.62 31.25 29.1L16.6 192.6c-7.17 80 50.72 148.5 127.4 157.2V480H79.1a16 16 0 1 0 0 32h160a16 16 0 0 0 16-16c.9-8.8-6.3-16-15.1-16zm16.9-448 8.6 96H54.33l8.33-96H256.9zM154.1 319.2c-30.4-1.6-58.24-15.3-78.34-38.5-20.41-23.6-30.1-53.8-27.29-85.2l3.08-35.5h216.8l3.18 35.51c2.81 31.34-6.88 61.58-27.28 85.14-20.1 23.22-47.92 36.91-78.32 38.56-7.33.39-4.43.39-11.83-.01z"/></svg>