<svg xmlns="http://www.w3.org/2000/svg" viewBox="0 0 640 512" fill="#ffffff"><!--! Font Awesome Pro 6.1.1 by @fontawesome - https://fontawesome.com License - https://fontawesome.com/license (Commercial License) Copyright 2022 Fonticons, Inc.--><path d="M638.1 435.1a16.7 16.7 0 0 0-21.3-9.7l-64.4 22.9L515 352c58.3-29.5 87-97.3 63.5-160-11.6-31-52.7-107.2-98.2-177.4A32.1 32.1 0 0 0 442.4 2l-60.1 21.3a16.3 16.3 0 0 0-8.6 23.6 16 16 0 0 0 19 7.1l60-21.2c18.3 28.4 36 58 51.2 84.9l-124.6 44.5c-5.4 2-9.4 6.5-10.4 12.2l-.1.3a16 16 0 0 0 21 18.1l130.9-46.3a553 553 0 0 1 27.4 56.7 97.1 97.1 0 0 1-53.4 123.6c-6.8 2.8-4.2 1.9-11.1 3.9A101.5 101.5 0 0 1 371.3 289c-6-9-18.8-9.8-25.8-1.7a16.2 16.2 0 0 0-1.4 19.6A134.6 134.6 0 0 0 484.7 363l37.5 96.2-60.3 21.4a16 16 0 0 0-9.9 20.7 16.7 16.7 0 0 0 21.3 9.6l155.9-55.2c8.5-3.1 12.9-12.3 8.9-20.7zM330.5 49.3 196.6 2c-14-5-29.6.1-37.7 12.6C113.4 84.8 72.2 160 60.6 191a128.6 128.6 0 0 0 63.5 160.1l-37.4 97.1-64.4-22.8c-8.6-3-18.2 1.3-21.3 9.6a16 16 0 0 0 10 20.7l155.8 55.3c8.6 3 18.2-1.3 21.3-9.7a16 16 0 0 0-10-20.7L118 459.4l37.4-96.2A134.2 134.2 0 0 0 310 280.4c11.6-30.8 30.2-114.3 41.7-196.4 2.1-15.1-6.9-29.6-21.2-34.7zm-51.7 220a101.3 101.3 0 0 1-122.5 61.3c-7-2-5.2-1.1-11.1-4A97 97 0 0 1 91.8 203c4.5-12 14.4-32.4 27.4-56.7l176 62.4c-6 26.7-11.9 48.6-16.4 60.6zm23.3-92.5-167-59.2c15.2-27 32-56.5 51.3-85l132.4 47c-4.7 33.3-10.6 67-16.7 97.2z"/></svg>