<svg xmlns="http://www.w3.org/2000/svg" viewBox="0 0 576 512" fill="#ffffff"><!--! Font Awesome Pro 6.1.1 by @fontawesome - https://fontawesome.com License - https://fontawesome.com/license (Commercial License) Copyright 2022 Fonticons, Inc.--><path d="M358.4 162.7c-.7-2-1-4.1-1-6.2.2-2.1.7-4.2.7-6.1 1.8-1.9 3-3.6 4.6-5L481.5 38a16 16 0 0 1 22.6 1.1 21 21 0 0 1 4.1 11.6 14 14 0 0 1-6.1 11L384.2 169.2a16 16 0 0 1-17.6 2.6c-1.9-.9-3.6-2.2-5-3.8a15 15 0 0 1-3.2-5.3zM161.8 331.1c-2 0-4.7-1.2-5.3-2.7L54.1 222.8A185 185 0 0 1 15 19.4a32 32 0 0 1 52-10l203.4 206.8c2.8 2.9 4.4 6.7 4.4 10.7 0 4-1.6 7.8-4.4 10.7a17.2 17.2 0 0 1-11.9 5c-2.3 0-4.5-.5-6.5-1.3-2.1-.9-4.8-2.1-5.5-3.7L44.2 32a152.1 152.1 0 0 0 32.6 168.1l102.8 106.1a16.1 16.1 0 0 1-2.7 24.5 17.6 17.6 0 0 1-9.8 2.6c-1.2 0-3.4-.5-5.3-2.2zm246.1-116.7c-1.5-2.3-2.8-3.1-3.7-5a16.1 16.1 0 0 1 2.6-17.6L514.3 73c1.4-1.5 3.1-2.8 5.1-3.7a15.6 15.6 0 0 1 12.2-.6c2 .7 3.8 1.8 4.5 3.2a11 11 0 0 1 4.6 5 16 16 0 0 1 1.5 6c.1 2.2-1.1 4.3-.9 6.3a16 16 0 0 1-3.2 5.3L430.6 213.3a16.1 16.1 0 0 1-17.2 4.3c-2-.7-3.8-1.8-6.3-3.2h.8zm161.4-106.2a16 16 0 0 1 6.5 10.3c.7 4.2-.3 7.6-2.7 11.9l-83.5 116a82.2 82.2 0 0 1-28.5 28 79 79 0 0 1-45.8 13.6c-24.5-.1-48-9.6-65.5-26.7l-6.2-6.2L91.5 507.2c-3 2.9-7 4.5-11.3 4.5-4.2 0-8.2-2.6-11.1-4.7a15.9 15.9 0 0 1-.2-22.4L321 232.5l-6.1-6.1a83.5 83.5 0 0 1-21.4-34.7 93 93 0 0 1 7.6-77.9A101 101 0 0 1 330.3 86L445.5 3c2.6-2.5 7.7-3.5 11.9-2.8 4.2.7 8 3 10.5 6.5 2.4 3.4 3.4 7.7 2.8 12-1.6 4.1-3.1 7.9-6.5 10.3l-116 83.5a55.8 55.8 0 0 0-24.8 68.6 62 62 0 0 0 13.9 22.7l16.7 16.7.9.6.5.8 16.8 16.8a75.2 75.2 0 0 0 22.7 14 58.5 58.5 0 0 0 50.5-5.7c7.2-4.7 13.3-11 17.6-18.4l84-116.8c1.2-1.7 2.8-3.1 4.6-4.2 1.8-1.2 3.8-1.9 5.8-2.2 2.1-.4 4.3-.3 6.3.2 2.1.5 4 .5 5.7 2.6h-.1zm-30.1 376.5a16 16 0 0 1 4.5 10.4c-.1 5.1-1.8 9.1-5.6 12.1-2.1 2.9-7 4.6-10.3 4.6a16 16 0 0 1-11.3-4.4l-176-176a16 16 0 0 1-4.4-11.3c0-4.2 1.7-8.2 4.6-11.2 3-3.8 7-4.6 11.2-4.7 4.2 0 8.2 1.6 11.3 4.5l176 176z"/></svg>