<svg xmlns="http://www.w3.org/2000/svg" viewBox="0 0 640 512" fill="#ffffff"><!--! Font Awesome Pro 6.1.1 by @fontawesome - https://fontawesome.com License - https://fontawesome.com/license (Commercial License) Copyright 2022 Fonticons, Inc.--><path d="m176.3 68.72 46.3-33.66c7.1-5.2 17.1-3.62 22.3 3.53a15.95 15.95 0 0 1-3.5 22.35L193.2 95.1H224c21.1 0 39.8 11.1 51.4 26.8-8.5 7.5-15.9 16.4-21.6 26.4-4.7-11.9-16.3-21.2-29.8-21.2H64c-17.67 0-32 15.2-32 32V448c0 17.7 14.33 32 32 32h128c0 11.7 3.1 22.6 8.6 32H64c-35.35 0-64-28.7-64-64V159.1c0-34.4 28.65-64 64-64h30.8L46.59 60.94a16 16 0 1 1 18.82-25.88L113 69.69 96.82 21.06A16.02 16.02 0 0 1 106.9.82c8.4-2.8 17.5 1.74 20.3 10.12l17.3 51.84 18.4-52.12a16.01 16.01 0 0 1 30.2 10.68l-16.8 47.38zm159.9 58.38c19.9 0 37.9 10.1 51 26l44.8 58.3 44.8-58.3c12.2-15.9 31.1-26 51-26 35.3 0 64.2 29.5 64.2 64 0 12.6-3.1 23.5-8.6 32h8.6c26.5 0 48 22.4 48 48V464c0 26.5-21.5 48-48 48H272c-26.5 0-48-21.5-48-48V271.1c0-25.6 21.5-48 48-48h8.6c-5.5-8.5-8.6-19.4-8.6-32 0-34.5 28.9-64 64.2-64zm25.6 45.5c-6.1-7.9-15.6-13.5-25.6-13.5-17.8 0-32.2 15.3-32.2 32 0 18.6 14.3 32 32 32h65.4l-39.6-50.5zM256 352h160v-96.9H272c-8.8 0-16 8.1-16 16V352zm16 128h144v-96H256v80c0 8.8 7.2 16 16 16zm336-16v-80H448v96h144c8.8 0 16-7.2 16-16zm-16-208.9H448V352h160v-80.9c0-7.9-7.2-16-16-16zm-64-32c17.7 0 32-13.4 32-32 0-16.7-14.4-32-32.2-32-10 0-19.5 5.6-25.6 13.5l-39.6 50.5H528z"/></svg>