<svg xmlns="http://www.w3.org/2000/svg" viewBox="0 0 512 512" fill="#ffffff"><!--! Font Awesome Pro 6.1.1 by @fontawesome - https://fontawesome.com License - https://fontawesome.com/license (Commercial License) Copyright 2022 Fonticons, Inc.--><path d="M150.6 201.4a31.8 31.8 0 0 0-29.4-8.7 32 32 0 0 0-23.2 20l-95.1 256a32 32 0 0 0 7.3 34c5.3 6 13.5 9.3 21.8 9.3a32 32 0 0 0 11.3-2l255-96a32 32 0 0 0 11.4-52.6l-159.1-160zM32 479.1l28.7-76.7 48 48L32 479zm109.5-40.2L73 370.4l22.5-60.2 106.2 106.2-60.2 22.5zm93.1-34.9L107.9 277.3l20-53.3 160 159.1-53.3 20.9zM496 256h-10.9c-50.6 0-98 25.8-130.2 70.7a16 16 0 0 0 26.1 18.6C407 309 444.1 288 485.1 288H496c8.8 0 16-7.2 16-16s-7.2-16-16-16zm-320-96c3.2 0 6.5-1 9.3-3C230.2 124.9 256 77.5 256 26.9V16c0-8.8-7.2-16-15.1-16a16 16 0 0 0-16 16v10.9c0 40.1-20.9 78-57.3 104-8.1 5.2-9.8 15.2-5.5 22.4 4 4.4 8.9 6.7 13.9 6.7zM64 56a24 24 0 1 0 0-48 23.2 23.2 0 0 0-23.1 24C40 45.3 50.8 56 64 56zm416 368a24 24 0 1 0 0 48 24 24 0 0 0 0-48zm0-288a24 24 0 1 0 0 48 24 24 0 0 0 0-48zm-97.3 39.1c19.8-23.5 18.4-46 17.3-64-1-16.2-1.8-27.8 9.7-41.5 11.5-13.6 22.8-14.6 38.5-16 18-1.7 40.1-3.7 60-27.3a16 16 0 1 0-24.4-20.6c-11.4 13.6-22.8 14.6-38.5 16-17.9 1.6-40 3.7-60 27.3-19.8 23.5-18.4 46-17.3 64 1 16.2 1.8 27.8-9.7 41.5-11.5 13.5-22.8 14.5-38.5 16-17.9 1.5-40 3.5-60 27.2a16 16 0 1 0 24.4 20.6c11.5-13.5 22.8-14.5 38.5-16 17.8-1.5 40.1-3.5 60-27.2z"/></svg>