<svg xmlns="http://www.w3.org/2000/svg" viewBox="0 0 512 512" fill="#ffffff"><!--! Font Awesome Pro 6.1.1 by @fontawesome - https://fontawesome.com License - https://fontawesome.com/license (Commercial License) Copyright 2022 Fonticons, Inc.--><path d="M392.2 169.2a16 16 0 0 0-10.2 30.3A144 144 0 1 1 192 336a143 143 0 0 1 107.1-138.9c2.8 4.6 6 8.9 8.3 13.9a143.1 143.1 0 0 1-41.9 174.3 16 16 0 0 0 19.7 25.2 175 175 0 0 0 51.2-213A175.4 175.4 0 0 0 233 105.1l35.7-47.6a16.1 16.1 0 0 0-4-23l-48-32A16 16 0 0 0 208 0h-64c-3.2 0-6.2 1-8.9 2.7l-48 32A16 16 0 0 0 83 57.3l34.8 48.8A175 175 0 0 0 11.5 211.6a175.9 175.9 0 0 0 185 235.2c.9 0 1.6-.4 2.4-.6A175.4 175.4 0 0 0 336 512c97 0 176-79 176-176 0-75.7-48.2-142.7-119.8-166.8zm-244-75.7-29.6-41.3L148.8 32h54.3l30 20-34.2 45.4c-16-2-32.4-2-48.8.5-.5-1.5-1-3-1.9-4.4zM46.4 332.7c-16.3-34.9-18-74-4.8-110.2a143.8 143.8 0 0 1 236.7-52.2A173.4 173.4 0 0 0 160 335.1c0 28.6 7 55.5 19.2 79.5-56.4 2-108.7-30-132.8-81.9z"/></svg>